<svg width="24" height="23" fill="none" xmlns="http://www.w3.org/2000/svg"><path fill-rule="evenodd" clip-rule="evenodd" d="M2.8 4.9c-.6 0-.9.4-.9.8v14.4c0 .5.4.9.9.9h18c.5 0 .9-.4.9-.9V5.7c0-.4-.3-.8-.9-.8h-.9V3.1h.9c1.4 0 2.7 1 2.7 2.6v14.4c0 1.5-1.2 2.7-2.7 2.7h-18a2.7 2.7 0 01-2.7-2.7V5.7c0-1.6 1.3-2.6 2.7-2.6h.9v1.8h-.9z" fill="#727272"/><path fill-rule="evenodd" clip-rule="evenodd" d="M7.3 1c1.4.2 3.1.7 5 2.3l-.5.7h.9v15a2.7 2.7 0 01-3.9 2.3l-1-.5-2.6-.7a2.7 2.7 0 01-2.4-2.7V3h.9-.9a1.8 1.8 0 010-.3l.2-.6c0-.2.3-.5.5-.7.3-.2.7-.3 1.1-.3a3.3 3.3 0 00.4 0h.5C6 1 6.5.8 7.3 1zM4.6 3v14.4c0 .5.3.9.8 1a13.2 13.2 0 013.2.8l1 .5a.9.9 0 001.3-.8V4.4a7 7 0 00-5.7-1.6 5 5 0 01-.6.1.5.5 0 000 .1z" fill="#727272"/><path fill-rule="evenodd" clip-rule="evenodd" d="M12.7 4.4V19a.9.9 0 001.3.8l1-.5a13.2 13.2 0 013.2-.9c.5 0 .8-.4.8-.9V3a.5.5 0 000-.1 5 5 0 01-.5 0h-.1a16.8 16.8 0 00-1.9 0c-1 0-2.3.4-3.8 1.5zm-.9-.4l-.6-.7c2-1.6 3.7-2.1 5.1-2.3a8.7 8.7 0 012.3 0l.4.1c.4 0 .8.1 1 .3l.6.7a2.2 2.2 0 01.2.9h-.9.9v14.4c0 1.5-1 2.5-2.4 2.7l-2.6.7-1 .5a2.7 2.7 0 01-3.9-2.4V4h.9z" fill="#727272"/></svg>